<?xml version="1.0" encoding="UTF-8" standalone="no"?>
<!DOCTYPE svg PUBLIC "-//W3C//DTD SVG 1.1//EN"
 "http://www.w3.org/Graphics/SVG/1.1/DTD/svg11.dtd">
<!-- Generated by graphviz version 2.28.0 (20120228.1928)
 -->
<!-- Title: database Pages: 1 -->
<svg width="172pt" height="132pt"
 viewBox="0.00 0.00 172.00 132.00" xmlns="http://www.w3.org/2000/svg" xmlns:xlink="http://www.w3.org/1999/xlink">
<g id="graph1" class="graph" transform="scale(1 1) rotate(0) translate(4 128)">
<title>database</title>
<polygon fill="white" stroke="white" points="-4,5 -4,-128 169,-128 169,5 -4,5"/>
<!-- staff -->
<g id="node1" class="node"><title>staff</title>
<ellipse fill="none" stroke="black" cx="55" cy="-106" rx="27" ry="18"/>
<text text-anchor="middle" x="55" y="-102.3" font-family="Times,serif" font-size="14.00">staff</text>
</g>
<!-- forum -->
<g id="node2" class="node"><title>forum</title>
<ellipse fill="none" stroke="black" cx="32" cy="-18" rx="32.2457" ry="18"/>
<text text-anchor="middle" x="32" y="-14.3" font-family="Times,serif" font-size="14.00">forum</text>
</g>
<!-- staff&#45;&gt;forum -->
<g id="edge2" class="edge"><title>staff&#45;&gt;forum</title>
<path fill="none" stroke="black" d="M33.8709,-94.2997C24.7566,-88.4667 15.0442,-80.3135 10,-70 5.72368,-61.2565 8.23973,-51.4793 12.8567,-42.8429"/>
<polygon fill="black" stroke="black" points="15.843,-44.6689 18.2319,-34.3469 9.92752,-40.9263 15.843,-44.6689"/>
<text text-anchor="middle" x="21.5" y="-58.3" font-family="Times,serif" font-size="14.00">dibs</text>
</g>
<!-- staff&#45;&gt;forum -->
<g id="edge4" class="edge"><title>staff&#45;&gt;forum</title>
<path fill="none" stroke="black" d="M50.4559,-88.0092C47.2428,-75.9947 42.8691,-59.641 39.1859,-45.8691"/>
<polygon fill="black" stroke="black" points="42.4995,-44.7117 36.5346,-35.9555 35.7371,-46.5203 42.4995,-44.7117"/>
<text text-anchor="middle" x="74.5" y="-58.3" font-family="Times,serif" font-size="14.00">moderates</text>
</g>
<!-- role -->
<g id="node3" class="node"><title>role</title>
<ellipse fill="none" stroke="black" cx="135" cy="-18" rx="27" ry="18"/>
<text text-anchor="middle" x="135" y="-14.3" font-family="Times,serif" font-size="14.00">role</text>
</g>
<!-- staff&#45;&gt;role -->
<g id="edge6" class="edge"><title>staff&#45;&gt;role</title>
<path fill="none" stroke="black" d="M75.7216,-94.1765C86.0164,-88.0726 98.1191,-79.7218 107,-70 113.633,-62.7393 119.27,-53.6249 123.71,-45.1168"/>
<polygon fill="black" stroke="black" points="126.968,-46.4222 128.203,-35.8997 120.675,-43.3548 126.968,-46.4222"/>
<text text-anchor="middle" x="141" y="-58.3" font-family="Times,serif" font-size="14.00">has_role</text>
</g>
</g>
</svg>
